<?xml version="1.0" encoding="UTF-8" standalone="no"?>
<!DOCTYPE svg PUBLIC "-//W3C//DTD SVG 1.1//EN" "http://www.w3.org/Graphics/SVG/1.1/DTD/svg11.dtd">
<svg width="100%" height="100%" viewBox="0 0 837 837" version="1.1" xmlns="http://www.w3.org/2000/svg" xmlns:xlink="http://www.w3.org/1999/xlink" xml:space="preserve" xmlns:serif="http://www.serif.com/" style="fill-rule:evenodd;clip-rule:evenodd;">
    <g transform="matrix(1,0,0,1,-9818.18,-18004)">
        <g>
            <g>
                <g transform="matrix(3.20623,0,0,3.19293,-21524.7,-40932.6)">
                    <rect x="9777.26" y="18460.2" width="257" height="258.07" style="fill:rgb(9,9,11);"/>
                </g>
                <g transform="matrix(1,0,0,1,9724.36,17910.2)">
                    <path d="M100,724.005L100,300.005C100,185.006 170,100 300.026,100.005L724,100C854,100.005 924,185.006 924,300.005L924,724.005C924,839.006 854,924 724,924.005L300.026,924.005C170,924.005 100,839.006 100,724.005Z" style="fill:none;fill-rule:nonzero;stroke:rgb(51,51,51);stroke-width:3px;"/>
                    <path d="M154.017,870.001L870.001,870.001L870.001,154.014L154.017,154.014L154.017,870.001ZM154.017,870.001L870.001,154.014L154.017,870.001ZM100,511.995L924,511.995L100,511.995ZM100,669.36L924,669.36L100,669.36ZM924,354.631L100,354.631L924,354.631ZM669.365,99.995L669.365,923.995L669.365,99.995ZM354.635,923.995L354.635,99.995L354.635,923.995ZM512,99.995L512,923.995L512,99.995ZM154.017,154.014L870.001,870.001L154.017,154.014Z" style="fill:none;fill-rule:nonzero;stroke:rgb(51,51,51);stroke-width:1px;"/>
                    <circle cx="512" cy="511.995" r="157.397" style="fill:none;stroke:rgb(51,51,51);stroke-opacity:0.6;stroke-width:1px;"/>
                    <circle cx="512" cy="511.995" r="222.577" style="fill:none;stroke:rgb(51,51,51);stroke-opacity:0.6;stroke-width:1px;"/>
                    <circle cx="512" cy="511.995" r="358.001" style="fill:none;stroke:rgb(51,51,51);stroke-opacity:0.6;stroke-width:1px;"/>
                </g>
            </g>
            <g transform="matrix(0.91347,0,0,0.91347,895.721,804.257)">
                <g transform="matrix(49.2627,0,0,49.2627,9898.94,19001.8)">
                    <rect x="-0.011" y="-0.91" width="0.73" height="0.607" style="fill:rgb(102,102,102);fill-rule:nonzero;"/>
                </g>
                <g transform="matrix(49.2627,0,0,49.2627,9989.99,19001.8)">
                    <rect x="0" y="-0.005" width="1" height="0.125" style="fill:rgb(195,195,195);fill-rule:nonzero;"/>
                </g>
                <g transform="matrix(49.2627,0,0,49.2627,10095.4,19001.8)">
                    <rect x="0" y="-0.13" width="1" height="0.25" style="fill:rgb(102,102,102);fill-rule:nonzero;"/>
                </g>
                <g transform="matrix(49.2627,0,0,49.2627,10200.8,19001.8)">
                    <rect x="0" y="-0.255" width="1" height="0.375" style="fill:rgb(102,102,102);fill-rule:nonzero;"/>
                </g>
                <g transform="matrix(49.2627,0,0,49.2627,10306.2,19001.8)">
                    <rect x="-0.011" y="-0.303" width="0.73" height="0.606" style="fill:rgb(102,102,102);fill-rule:nonzero;"/>
                </g>
                <g transform="matrix(49.2627,0,0,49.2627,10397.3,19001.8)">
                    <rect x="0" y="-0.505" width="1" height="0.625" style="fill:rgb(102,102,102);fill-rule:nonzero;"/>
                </g>
                <g transform="matrix(49.2627,0,0,49.2627,10502.7,19001.8)">
                    <rect x="0" y="-0.63" width="1" height="0.75" style="fill:rgb(102,102,102);fill-rule:nonzero;"/>
                </g>
                <g transform="matrix(49.2627,0,0,49.2627,9898.94,19201.8)">
                    <rect x="0" y="-0.755" width="1" height="0.875" style="fill:rgb(102,102,102);fill-rule:nonzero;"/>
                </g>
                <g transform="matrix(49.2627,0,0,49.2627,10004.4,19201.8)">
                    <rect x="-0.011" y="-0.91" width="0.73" height="1.213" style="fill:rgb(46,46,46);fill-rule:nonzero;"/>
                </g>
                <g transform="matrix(49.2627,0,0,49.2627,10095.4,19201.8)">
                    <rect x="0" y="-0.88" width="0.875" height="1" style="fill:rgb(159,159,159);fill-rule:nonzero;"/>
                </g>
                <g transform="matrix(49.2627,0,0,49.2627,10200.8,19201.8)">
                    <rect x="0" y="-0.88" width="0.75" height="1" style="fill:rgb(102,102,102);fill-rule:nonzero;"/>
                </g>
                <g transform="matrix(49.2627,0,0,49.2627,10306.2,19201.8)">
                    <rect x="0" y="-0.88" width="0.625" height="1" style="fill:rgb(102,102,102);fill-rule:nonzero;"/>
                </g>
                <g transform="matrix(49.2627,0,0,49.2627,10411.7,19201.8)">
                    <rect x="-0.011" y="-0.91" width="0.365" height="1.213" style="fill:rgb(56,56,56);fill-rule:nonzero;"/>
                </g>
                <g transform="matrix(49.2627,0,0,49.2627,10502.7,19201.8)">
                    <rect x="0" y="-0.88" width="0.375" height="1" style="fill:rgb(102,102,102);fill-rule:nonzero;"/>
                </g>
                <g transform="matrix(49.2627,0,0,49.2627,9898.94,19401.8)">
                    <rect x="0" y="-0.88" width="0.25" height="1" style="fill:rgb(102,102,102);fill-rule:nonzero;"/>
                </g>
                <g transform="matrix(49.2627,0,0,49.2627,9993.25,19401.8)">
                    <rect x="0" y="-0.88" width="0.125" height="1" style="fill:rgb(102,102,102);fill-rule:nonzero;"/>
                </g>
                <g transform="matrix(49.2627,0,0,49.2627,10087.6,19401.8)">
                    <rect x="0.354" y="-0.91" width="0.365" height="1.213" style="fill:rgb(102,102,102);fill-rule:nonzero;"/>
                </g>
                <g transform="matrix(49.2627,0,0,49.2627,10167.5,19401.8)">
                    <path d="M0.05,-0.91L0.111,-0.91L0.111,-0.849L0.05,-0.849L0.05,-0.91ZM0.293,-0.91L0.354,-0.91L0.354,-0.849L0.293,-0.849L0.293,-0.91ZM0.537,-0.91L0.598,-0.91L0.598,-0.849L0.537,-0.849L0.537,-0.91ZM0.171,-0.789L0.232,-0.789L0.232,-0.728L0.171,-0.728L0.171,-0.789ZM0.415,-0.789L0.476,-0.789L0.476,-0.728L0.415,-0.728L0.415,-0.789ZM0.658,-0.789L0.719,-0.789L0.719,-0.728L0.658,-0.728L0.658,-0.789ZM0.537,-0.667L0.598,-0.667L0.598,-0.606L0.537,-0.606L0.537,-0.667ZM0.293,-0.667L0.354,-0.667L0.354,-0.606L0.293,-0.606L0.293,-0.667ZM0.05,-0.667L0.111,-0.667L0.111,-0.606L0.05,-0.606L0.05,-0.667ZM0.658,-0.545L0.719,-0.545L0.719,-0.484L0.658,-0.484L0.658,-0.545ZM0.415,-0.545L0.476,-0.545L0.476,-0.484L0.415,-0.484L0.415,-0.545ZM0.171,-0.545L0.232,-0.545L0.232,-0.484L0.171,-0.484L0.171,-0.545ZM0.05,-0.423L0.111,-0.423L0.111,-0.362L0.05,-0.362L0.05,-0.423ZM0.293,-0.423L0.354,-0.423L0.354,-0.362L0.293,-0.362L0.293,-0.423ZM0.537,-0.423L0.598,-0.423L0.598,-0.362L0.537,-0.362L0.537,-0.423ZM0.658,-0.302L0.719,-0.302L0.719,-0.241L0.658,-0.241L0.658,-0.302ZM0.415,-0.302L0.476,-0.302L0.476,-0.241L0.415,-0.241L0.415,-0.302ZM0.171,-0.302L0.232,-0.302L0.232,-0.241L0.171,-0.241L0.171,-0.302ZM0.05,-0.18L0.111,-0.18L0.111,-0.119L0.05,-0.119L0.05,-0.18ZM0.293,-0.18L0.354,-0.18L0.354,-0.119L0.293,-0.119L0.293,-0.18ZM0.537,-0.18L0.598,-0.18L0.598,-0.119L0.537,-0.119L0.537,-0.18ZM0.171,-0.058L0.232,-0.058L0.232,0.002L0.171,0.002L0.171,-0.058ZM0.415,-0.058L0.476,-0.058L0.476,0.002L0.415,0.002L0.415,-0.058ZM0.658,-0.058L0.719,-0.058L0.719,0.002L0.658,0.002L0.658,-0.058ZM0.537,0.063L0.598,0.063L0.598,0.125L0.537,0.125L0.537,0.063ZM0.293,0.063L0.354,0.063L0.354,0.125L0.293,0.125L0.293,0.063ZM0.05,0.063L0.111,0.063L0.111,0.125L0.05,0.125L0.05,0.063ZM0.171,0.185L0.232,0.185L0.232,0.246L0.171,0.246L0.171,0.185ZM0.415,0.185L0.476,0.185L0.476,0.246L0.415,0.246L0.415,0.185ZM0.658,0.185L0.719,0.185L0.719,0.246L0.658,0.246L0.658,0.185Z" style="fill:rgb(102,102,102);fill-rule:nonzero;"/>
                </g>
                <g transform="matrix(49.2627,0,0,49.2627,10247.5,19401.8)">
                    <path d="M0.05,-0.91L0.111,-0.91L0.111,-0.849L0.05,-0.849L0.05,-0.91ZM0.172,-0.91L0.232,-0.91L0.232,-0.849L0.172,-0.849L0.172,-0.91ZM0.293,-0.91L0.354,-0.91L0.354,-0.849L0.293,-0.849L0.293,-0.91ZM0.415,-0.91L0.476,-0.91L0.476,-0.849L0.415,-0.849L0.415,-0.91ZM0.537,-0.91L0.598,-0.91L0.598,-0.849L0.537,-0.849L0.537,-0.91ZM0.659,-0.91L0.719,-0.91L0.719,-0.849L0.659,-0.849L0.659,-0.91ZM-0.011,-0.789L0.05,-0.789L0.05,-0.728L-0.011,-0.728L-0.011,-0.789ZM0.111,-0.789L0.172,-0.789L0.172,-0.728L0.111,-0.728L0.111,-0.789ZM0.232,-0.789L0.293,-0.789L0.293,-0.728L0.232,-0.728L0.232,-0.789ZM0.354,-0.789L0.415,-0.789L0.415,-0.728L0.354,-0.728L0.354,-0.789ZM0.476,-0.789L0.537,-0.789L0.537,-0.728L0.476,-0.728L0.476,-0.789ZM0.598,-0.789L0.659,-0.789L0.659,-0.728L0.598,-0.728L0.598,-0.789ZM0.05,-0.667L0.111,-0.667L0.111,-0.606L0.05,-0.606L0.05,-0.667ZM0.172,-0.667L0.232,-0.667L0.232,-0.606L0.172,-0.606L0.172,-0.667ZM0.293,-0.667L0.354,-0.667L0.354,-0.606L0.293,-0.606L0.293,-0.667ZM0.415,-0.667L0.476,-0.667L0.476,-0.606L0.415,-0.606L0.415,-0.667ZM0.537,-0.667L0.598,-0.667L0.598,-0.606L0.537,-0.606L0.537,-0.667ZM0.659,-0.667L0.719,-0.667L0.719,-0.606L0.659,-0.606L0.659,-0.667ZM-0.011,-0.545L0.05,-0.545L0.05,-0.484L-0.011,-0.484L-0.011,-0.545ZM0.111,-0.545L0.172,-0.545L0.172,-0.484L0.111,-0.484L0.111,-0.545ZM0.232,-0.545L0.293,-0.545L0.293,-0.484L0.232,-0.484L0.232,-0.545ZM0.354,-0.545L0.415,-0.545L0.415,-0.484L0.354,-0.484L0.354,-0.545ZM0.476,-0.545L0.537,-0.545L0.537,-0.484L0.476,-0.484L0.476,-0.545ZM0.598,-0.545L0.659,-0.545L0.659,-0.484L0.598,-0.484L0.598,-0.545ZM0.05,-0.423L0.111,-0.423L0.111,-0.362L0.05,-0.362L0.05,-0.423ZM0.172,-0.423L0.232,-0.423L0.232,-0.362L0.172,-0.362L0.172,-0.423ZM0.293,-0.423L0.354,-0.423L0.354,-0.362L0.293,-0.362L0.293,-0.423ZM0.415,-0.423L0.476,-0.423L0.476,-0.362L0.415,-0.362L0.415,-0.423ZM0.537,-0.423L0.598,-0.423L0.598,-0.362L0.537,-0.362L0.537,-0.423ZM0.659,-0.423L0.719,-0.423L0.719,-0.362L0.659,-0.362L0.659,-0.423ZM-0.011,-0.302L0.05,-0.302L0.05,-0.241L-0.011,-0.241L-0.011,-0.302ZM0.232,-0.302L0.293,-0.302L0.293,-0.241L0.232,-0.241L0.232,-0.302ZM0.354,-0.302L0.415,-0.302L0.415,-0.241L0.354,-0.241L0.354,-0.302ZM0.476,-0.302L0.537,-0.302L0.537,-0.241L0.476,-0.241L0.476,-0.302ZM0.598,-0.302L0.659,-0.302L0.659,-0.241L0.598,-0.241L0.598,-0.302ZM0.111,-0.302L0.172,-0.302L0.172,-0.241L0.111,-0.241L0.111,-0.302ZM0.659,-0.18L0.719,-0.18L0.719,-0.119L0.659,-0.119L0.659,-0.18ZM0.537,-0.18L0.598,-0.18L0.598,-0.119L0.537,-0.119L0.537,-0.18ZM0.415,-0.18L0.476,-0.18L0.476,-0.119L0.415,-0.119L0.415,-0.18ZM0.293,-0.18L0.354,-0.18L0.354,-0.119L0.293,-0.119L0.293,-0.18ZM0.172,-0.18L0.232,-0.18L0.232,-0.119L0.172,-0.119L0.172,-0.18ZM0.05,-0.18L0.111,-0.18L0.111,-0.119L0.05,-0.119L0.05,-0.18ZM-0.011,-0.058L0.05,-0.058L0.05,0.002L-0.011,0.002L-0.011,-0.058ZM0.111,-0.058L0.172,-0.058L0.172,0.002L0.111,0.002L0.111,-0.058ZM0.232,-0.058L0.293,-0.058L0.293,0.002L0.232,0.002L0.232,-0.058ZM0.354,-0.058L0.415,-0.058L0.415,0.002L0.354,0.002L0.354,-0.058ZM0.476,-0.058L0.537,-0.058L0.537,0.002L0.476,0.002L0.476,-0.058ZM0.598,-0.058L0.659,-0.058L0.659,0.002L0.598,0.002L0.598,-0.058ZM0.659,0.063L0.719,0.063L0.719,0.125L0.659,0.125L0.659,0.063ZM0.537,0.063L0.598,0.063L0.598,0.125L0.537,0.125L0.537,0.063ZM0.415,0.063L0.476,0.063L0.476,0.125L0.415,0.125L0.415,0.063ZM0.293,0.063L0.354,0.063L0.354,0.125L0.293,0.125L0.293,0.063ZM0.172,0.063L0.232,0.063L0.232,0.125L0.172,0.125L0.172,0.063ZM0.05,0.063L0.111,0.063L0.111,0.125L0.05,0.125L0.05,0.063ZM-0.011,0.185L0.05,0.185L0.05,0.246L-0.011,0.246L-0.011,0.185ZM0.111,0.185L0.172,0.185L0.172,0.246L0.111,0.246L0.111,0.185ZM0.232,0.185L0.293,0.185L0.293,0.246L0.232,0.246L0.232,0.185ZM0.354,0.185L0.415,0.185L0.415,0.246L0.354,0.246L0.354,0.185ZM0.476,0.185L0.537,0.185L0.537,0.246L0.476,0.246L0.476,0.185ZM0.598,0.185L0.659,0.185L0.659,0.246L0.598,0.246L0.598,0.185Z" style="fill:rgb(102,102,102);fill-rule:nonzero;"/>
                </g>
                <g transform="matrix(49.2627,0,0,49.2627,10327.4,19401.8)">
                    <path d="M0.729,-0.728L0.729,-0.545L0.669,-0.545L0.669,-0.484L0.729,-0.484L0.729,-0.302L0.669,-0.302L0.669,-0.241L0.729,-0.241L0.729,-0.058L0.669,-0.058L0.669,0.002L0.729,0.002L0.729,0.185L0.669,0.185L0.669,0.246L0.729,0.246L0.729,0.307L-0,0.307L-0,0.125L0.061,0.125L0.061,0.063L-0,0.063L-0,-0.119L0.061,-0.119L0.061,-0.18L-0,-0.18L-0,-0.362L0.061,-0.362L0.061,-0.423L-0,-0.423L-0,-0.606L0.061,-0.606L0.061,-0.667L-0,-0.667L-0,-0.849L0.061,-0.849L0.061,-0.91L0.121,-0.91L0.121,-0.849L0.182,-0.849L0.182,-0.91L0.243,-0.91L0.243,-0.849L0.304,-0.849L0.304,-0.91L0.365,-0.91L0.365,-0.849L0.425,-0.849L0.425,-0.91L0.486,-0.91L0.486,-0.849L0.547,-0.849L0.547,-0.91L0.608,-0.91L0.608,-0.849L0.669,-0.849L0.669,-0.91L0.729,-0.91L0.729,-0.789L0.669,-0.789L0.669,-0.728L0.729,-0.728ZM0.061,-0.789L0.061,-0.728L0.121,-0.728L0.121,-0.789L0.061,-0.789ZM0.182,-0.789L0.182,-0.728L0.243,-0.728L0.243,-0.789L0.182,-0.789ZM0.304,-0.789L0.304,-0.728L0.365,-0.728L0.365,-0.789L0.304,-0.789ZM0.425,-0.789L0.425,-0.728L0.486,-0.728L0.486,-0.789L0.425,-0.789ZM0.547,-0.789L0.547,-0.728L0.608,-0.728L0.608,-0.789L0.547,-0.789ZM0.669,-0.667L0.608,-0.667L0.608,-0.606L0.669,-0.606L0.669,-0.667ZM0.547,-0.667L0.486,-0.667L0.486,-0.606L0.547,-0.606L0.547,-0.667ZM0.425,-0.667L0.365,-0.667L0.365,-0.606L0.425,-0.606L0.425,-0.667ZM0.304,-0.667L0.243,-0.667L0.243,-0.606L0.304,-0.606L0.304,-0.667ZM0.182,-0.667L0.121,-0.667L0.121,-0.606L0.182,-0.606L0.182,-0.667ZM0.061,-0.545L0.061,-0.484L0.121,-0.484L0.121,-0.545L0.061,-0.545ZM0.182,-0.545L0.182,-0.484L0.243,-0.484L0.243,-0.545L0.182,-0.545ZM0.304,-0.545L0.304,-0.484L0.365,-0.484L0.365,-0.545L0.304,-0.545ZM0.425,-0.545L0.425,-0.484L0.486,-0.484L0.486,-0.545L0.425,-0.545ZM0.547,-0.545L0.547,-0.484L0.608,-0.484L0.608,-0.545L0.547,-0.545ZM0.182,-0.423L0.121,-0.423L0.121,-0.362L0.182,-0.362L0.182,-0.423ZM0.243,-0.423L0.243,-0.362L0.304,-0.362L0.304,-0.423L0.243,-0.423ZM0.365,-0.423L0.365,-0.362L0.425,-0.362L0.425,-0.423L0.365,-0.423ZM0.486,-0.423L0.486,-0.362L0.547,-0.362L0.547,-0.423L0.486,-0.423ZM0.608,-0.423L0.608,-0.362L0.669,-0.362L0.669,-0.423L0.608,-0.423ZM0.061,-0.302L0.061,-0.241L0.121,-0.241L0.121,-0.302L0.061,-0.302ZM0.304,-0.302L0.304,-0.241L0.365,-0.241L0.365,-0.302L0.304,-0.302ZM0.243,-0.241L0.243,-0.302L0.182,-0.302L0.182,-0.241L0.243,-0.241ZM0.425,-0.302L0.425,-0.241L0.486,-0.241L0.486,-0.302L0.425,-0.302ZM0.547,-0.302L0.547,-0.241L0.608,-0.241L0.608,-0.302L0.547,-0.302ZM0.669,-0.119L0.669,-0.18L0.608,-0.18L0.608,-0.119L0.669,-0.119ZM0.547,-0.119L0.547,-0.18L0.486,-0.18L0.486,-0.119L0.547,-0.119ZM0.425,-0.119L0.425,-0.18L0.365,-0.18L0.365,-0.119L0.425,-0.119ZM0.304,-0.119L0.304,-0.18L0.243,-0.18L0.243,-0.119L0.304,-0.119ZM0.182,-0.119L0.182,-0.18L0.121,-0.18L0.121,-0.119L0.182,-0.119ZM0.061,-0.058L0.061,0.002L0.121,0.002L0.121,-0.058L0.061,-0.058ZM0.182,-0.058L0.182,0.002L0.243,0.002L0.243,-0.058L0.182,-0.058ZM0.304,-0.058L0.304,0.002L0.365,0.002L0.365,-0.058L0.304,-0.058ZM0.425,-0.058L0.425,0.002L0.486,0.002L0.486,-0.058L0.425,-0.058ZM0.547,-0.058L0.547,0.002L0.608,0.002L0.608,-0.058L0.547,-0.058ZM0.669,0.125L0.669,0.063L0.608,0.063L0.608,0.125L0.669,0.125ZM0.547,0.125L0.547,0.063L0.486,0.063L0.486,0.125L0.547,0.125ZM0.425,0.125L0.425,0.063L0.365,0.063L0.365,0.125L0.425,0.125ZM0.304,0.125L0.304,0.063L0.243,0.063L0.243,0.125L0.304,0.125ZM0.182,0.125L0.182,0.063L0.121,0.063L0.121,0.125L0.182,0.125ZM0.061,0.185L0.061,0.246L0.121,0.246L0.121,0.185L0.061,0.185ZM0.182,0.185L0.182,0.246L0.243,0.246L0.243,0.185L0.182,0.185ZM0.304,0.185L0.304,0.246L0.365,0.246L0.365,0.185L0.304,0.185ZM0.425,0.185L0.425,0.246L0.486,0.246L0.486,0.185L0.425,0.185ZM0.547,0.185L0.547,0.246L0.608,0.246L0.608,0.185L0.547,0.185Z" style="fill:rgb(219,219,219);fill-rule:nonzero;"/>
                </g>
                <g transform="matrix(49.2627,0,0,49.2627,10408.4,19401.8)">
                    <rect x="0" y="-0.88" width="1" height="0.123" style="fill:rgb(102,102,102);fill-rule:nonzero;"/>
                </g>
                <g transform="matrix(49.2627,0,0,49.2627,10502.7,19401.8)">
                    <rect x="0.877" y="-0.88" width="0.123" height="1" style="fill:rgb(102,102,102);fill-rule:nonzero;"/>
                </g>
                <g transform="matrix(49.2627,0,0,49.2627,9902.03,19601.8)">
                    <rect x="-0.01" y="-0.26" width="0.311" height="0.51" style="fill:rgb(102,102,102);fill-rule:nonzero;"/>
                </g>
                <g transform="matrix(49.2627,0,0,49.2627,9970.61,19601.8)">
                    <rect x="0.301" y="-0.26" width="0.311" height="0.51" style="fill:rgb(177,177,177);fill-rule:nonzero;"/>
                </g>
                <g transform="matrix(49.2627,0,0,49.2627,10039.2,19601.8)">
                    <rect x="-0.01" y="-0.77" width="0.311" height="0.51" style="fill:rgb(102,102,102);fill-rule:nonzero;"/>
                </g>
                <g transform="matrix(49.2627,0,0,49.2627,10107.8,19601.8)">
                    <path d="M-0.01,0.25L-0.01,-0.26L0.301,-0.26L0.301,0.25L-0.01,0.25ZM0.301,0.25L0.301,-0.26L0.612,-0.26L0.612,0.25L0.301,0.25ZM-0.01,-0.26L-0.01,-0.77L0.301,-0.77L0.301,-0.26L-0.01,-0.26Z" style="fill:rgb(102,102,102);fill-rule:nonzero;"/>
                </g>
                <g transform="matrix(49.2627,0,0,49.2627,10176.3,19601.8)">
                    <path d="M0.301,0.25L0.301,-0.26L0.612,-0.26L0.612,0.25L0.301,0.25ZM-0.01,-0.26L-0.01,-0.77L0.301,-0.77L0.301,-0.26L-0.01,-0.26Z" style="fill:rgb(102,102,102);fill-rule:nonzero;"/>
                </g>
                <g transform="matrix(49.2627,0,0,49.2627,10244.9,19601.8)">
                    <path d="M-0.01,0.25L-0.01,-0.26L0.301,-0.26L0.301,0.25L-0.01,0.25ZM-0.01,-0.26L-0.01,-0.77L0.301,-0.77L0.301,-0.26L-0.01,-0.26ZM0.301,-0.26L0.301,-0.77L0.612,-0.77L0.612,-0.26L0.301,-0.26Z" style="fill:rgb(44,44,44);fill-rule:nonzero;"/>
                </g>
                <g transform="matrix(49.2627,0,0,49.2627,10313.5,19601.8)">
                    <path d="M0.301,0.25L0.301,-0.26L0.612,-0.26L0.612,0.25L0.301,0.25ZM-0.01,-0.26L-0.01,-0.77L0.301,-0.77L0.301,-0.26L-0.01,-0.26ZM0.301,-0.26L0.301,-0.77L0.612,-0.77L0.612,-0.26L0.301,-0.26Z" style="fill:rgb(163,163,163);fill-rule:nonzero;"/>
                </g>
                <g transform="matrix(49.2627,0,0,49.2627,10382.1,19601.8)">
                    <rect x="0.301" y="-0.77" width="0.311" height="0.51" style="fill:rgb(44,44,44);fill-rule:nonzero;"/>
                </g>
                <g transform="matrix(49.2627,0,0,49.2627,10450.6,19601.8)">
                    <path d="M-0.01,0.25L-0.01,-0.26L0.301,-0.26L0.301,0.25L-0.01,0.25ZM0.301,-0.26L0.301,-0.77L0.612,-0.77L0.612,-0.26L0.301,-0.26Z" style="fill:rgb(102,102,102);fill-rule:nonzero;"/>
                </g>
                <g transform="matrix(49.2627,0,0,49.2627,10519.2,19601.8)">
                    <path d="M-0.01,0.25L-0.01,-0.26L0.301,-0.26L0.301,0.25L-0.01,0.25ZM0.301,0.25L0.301,-0.26L0.612,-0.26L0.612,0.25L0.301,0.25ZM0.301,-0.26L0.301,-0.77L0.612,-0.77L0.612,-0.26L0.301,-0.26Z" style="fill:rgb(102,102,102);fill-rule:nonzero;"/>
                </g>
            </g>
        </g>
    </g>
</svg>
